<svg width="68" height="100" viewBox="0 0 68 100" fill="none" xmlns="http://www.w3.org/2000/svg"><path d="M30.264 99.584c-10.464 0-20.112-1.872-28.944-5.616L6.072 72.8c7.584 3.072 14.64 4.608 21.168 4.608 7.872 0 11.808-2.928 11.808-8.784 0-4.128-2.016-7.056-6.048-8.784-4.032-1.728-10.752-2.592-20.16-2.592V39.392c8.544 0 14.928-.864 19.152-2.592 4.32-1.728 6.48-4.176 6.48-7.344 0-4.32-3.696-6.48-11.088-6.48-7.008 0-14.256 1.632-21.744 4.896L.024 8.288C10.584 3.104 21.672.512 33.288.512c8.832 0 15.984 2.112 21.456 6.336 5.568 4.224 8.352 9.984 8.352 17.28 0 4.704-1.248 8.976-3.744 12.816-2.4 3.84-5.664 6.912-9.792 9.216 5.472 2.496 9.792 5.904 12.96 10.224 3.264 4.32 4.896 9.12 4.896 14.4 0 5.856-1.584 10.944-4.752 15.264-3.072 4.32-7.44 7.68-13.104 10.08-5.568 2.304-12 3.456-19.296 3.456z" fill="#027BFD" fill-opacity=".15"/></svg>