<svg width="66" height="98" viewBox="0 0 66 98" fill="none" xmlns="http://www.w3.org/2000/svg"><path d="M2.472 77.696C13.8 67.52 22.344 58.88 28.104 51.776c5.76-7.104 8.64-13.008 8.64-17.712 0-3.072-.96-5.424-2.88-7.056-1.824-1.632-4.32-2.448-7.488-2.448-5.952 0-12.144 1.872-18.576 5.616L.744 8.72c5.28-2.688 10.464-4.704 15.552-6.048C21.48 1.328 26.904.656 32.568.656c6.72 0 12.576 1.344 17.568 4.032 5.088 2.592 8.976 6.192 11.664 10.8 2.688 4.512 4.032 9.696 4.032 15.552 0 8.736-2.928 16.896-8.784 24.48-5.856 7.488-14.688 14.64-26.496 21.456h34.704V98H2.472V77.696z" fill="#027BFD" fill-opacity=".15"/></svg>